<svg width="350" height="351" viewBox="0 0 350 351" fill="none" xmlns="http://www.w3.org/2000/svg">
<path d="M203.105 103.683H257.796C257.796 103.683 320.854 109.288 320.854 170.945L320.854 187.171C320.854 203.917 299.528 210.199 290.182 197.236C289.805 196.714 289.448 196.16 289.112 195.574L287.189 192.218C284.026 187.692 278.834 184.958 273.255 184.958H228.796C222.817 184.958 217.377 181.5 214.839 176.086C210.048 165.864 217.507 154.129 228.796 154.129H243.783H268.784C275.431 154.129 279.839 147.24 277.054 141.204C275.565 137.978 272.336 135.913 268.784 135.913H203.105C197.102 135.913 191.596 132.575 188.818 127.252C183.221 116.523 191.004 103.683 203.105 103.683Z" fill="#36D399"/>
<path d="M146.468 102.282H130.001C117.306 102.282 109.09 115.693 114.856 127.003L160.415 216.369C166.637 228.574 184.001 228.783 190.515 216.732L198.91 201.202C201.562 196.294 201.638 190.397 199.113 185.423L161.627 111.586C158.729 105.878 152.87 102.282 146.468 102.282Z" fill="#36D399"/>
<path d="M73.6014 102.282H57.1342C44.4386 102.282 36.2227 115.693 41.9888 127.003L87.5479 216.369C93.7701 228.574 111.134 228.783 117.648 216.732L126.043 201.202C128.695 196.294 128.771 190.397 126.246 185.423L88.7598 111.586C85.8618 105.878 80.003 102.282 73.6014 102.282Z" fill="#36D399"/>
</svg>
