<svg preserveAspectRatio="none" width="100%" height="100%" overflow="visible" style="display: block;" viewBox="0 0 133.885 100.483" fill="none" xmlns="http://www.w3.org/2000/svg">
<path id="Vector 4" d="M16.1366 0H70.8272C70.8272 0 133.885 5.60515 133.885 67.2618L133.885 83.4883C133.885 100.234 112.559 106.516 103.213 93.553C102.836 93.0305 102.479 92.4768 102.143 91.8912L100.22 88.5354C97.0574 84.0093 91.8655 81.2747 86.2861 81.2747H41.8273C35.848 81.2747 30.4082 77.8168 27.8704 72.4028C23.0791 62.1813 30.5386 50.4463 41.8273 50.4463H56.8144H81.8148C88.4621 50.4463 92.8704 43.5564 90.0849 37.521C88.5961 34.2953 85.3676 32.2296 81.8148 32.2296H16.1366C10.1327 32.2296 4.62661 28.8919 1.84942 23.569C-3.74815 12.8403 4.03542 0 16.1366 0Z" fill="var(--fill-0, #36D399)"/>
</svg>
